<svg width="606" height="614" viewBox="0 0 606 614" fill="none" xmlns="http://www.w3.org/2000/svg">
<mask id="mask0_21_8" style="mask-type:alpha" maskUnits="userSpaceOnUse" x="0" y="114" width="500" height="500">
<rect y="114" width="500" height="500" rx="5" fill="#3B1AF6"/>
</mask>
<g mask="url(#mask0_21_8)">
<rect y="114" width="500" height="500" rx="5" fill="url(#paint0_linear_21_8)"/>
<path fill-rule="evenodd" clip-rule="evenodd" d="M292.804 656.791V656.791L291.926 658.697L291.386 660.814L291.169 663.148L291.255 665.7L291.619 668.467L292.23 671.442L293.047 674.61L294.026 677.951L295.114 681.434L296.249 685.025L297.366 688.677L298.393 692.337L299.252 695.945L299.868 699.435L300.167 702.738L300.082 705.784L299.556 708.511L298.551 710.862L297.042 712.795L295.03 714.283L292.536 715.318L289.599 715.913L286.28 716.098L282.652 715.921L278.799 715.446L274.808 714.746L270.77 713.901L266.77 712.998L262.891 712.124L259.206 711.364L255.783 710.803L252.683 710.527L249.961 710.618L247.669 711.163L245.857 712.253L244.547 713.949L243.67 716.204L243.147 718.951L242.904 722.124L242.868 725.652L242.967 729.46L243.13 733.464L243.286 737.574L243.364 741.692L243.298 745.719L243.023 749.55L242.486 753.088L241.643 756.24L240.46 758.928L238.923 761.092L237.029 762.694L234.792 763.719L232.242 764.178L229.417 764.104L226.368 763.551L223.146 762.588L219.809 761.294L216.408 759.755L212.996 758.06L209.616 756.292L206.307 754.531L203.099 752.85L200.016 751.313L197.077 749.976L194.291 748.886L191.666 748.082L189.202 747.595L186.897 747.451L184.745 747.667L182.738 748.255L180.864 749.222L179.111 750.566L177.463 752.283L175.904 754.36L174.416 756.775L172.979 759.502L171.573 762.502L170.176 765.728L168.766 769.123L167.319 772.616L165.815 776.129L164.232 779.572L162.552 782.85L160.758 785.862L158.841 788.508L156.793 790.695L154.613 792.339L152.309 793.376L149.891 793.764L147.377 793.487L144.788 792.557L142.149 791.015L139.485 788.927L136.821 786.382L134.181 783.483L131.583 780.346L129.044 777.09L126.574 773.837L124.178 770.705L121.858 767.806L119.609 765.248L117.423 763.134L115.288 761.564L113.186 760.636L111.099 760.453L109.001 761.05L106.873 762.334L104.697 764.204L102.458 766.562L100.149 769.306L97.7627 772.331L95.3 775.526L92.7648 778.776L90.1665 781.96L87.5194 784.957L84.8422 787.651L82.1575 789.93L79.4904 791.701L76.8669 792.886L74.3127 793.434L71.8509 793.319L69.5007 792.545L67.2762 791.144L65.1855 789.17L63.23 786.699L61.4055 783.822L59.7019 780.635L58.1047 777.24L56.5956 773.734L55.1539 770.21L53.7573 766.752L52.3828 763.434L51.0076 760.317L49.6092 757.454L48.1661 754.886L46.658 752.646L45.0661 750.757L43.3729 749.234L41.5627 748.087L39.6216 747.318L37.5376 746.923L35.301 746.893L32.9049 747.213L30.3455 747.861L27.6224 748.809L24.7398 750.02L21.7071 751.452L18.5392 753.053L15.2576 754.761L11.8908 756.51L8.47414 758.221L5.05027 759.812L1.66775 761.198L-1.62016 762.291L-4.75775 763.01L-7.6897 763.279L-10.3642 763.039L-12.7369 762.247L-14.7736 760.882L-16.4538 758.949L-17.7719 756.474L-18.7383 753.51L-19.3789 750.126L-19.7334 746.409L-19.8533 742.454L-19.7989 738.364L-19.6364 734.239L-19.4361 730.179L-19.2694 726.276L-19.2088 722.615L-19.3262 719.276L-19.6943 716.33L-20.387 713.845L-21.4815 711.887L-23.0586 710.519L-25.1397 709.73L-27.6766 709.43L-30.6178 709.532L-33.9092 709.953L-37.492 710.608L-41.3011 711.413L-45.2645 712.283L-49.303 713.132L-53.3314 713.875L-57.2606 714.428L-61.0007 714.715L-64.465 714.669L-67.5745 714.236L-70.2631 713.375L-72.4808 712.069L-74.198 710.316L-75.4063 708.135L-76.1187 705.561L-76.3686 702.646L-76.206 699.449L-75.694 696.037L-74.9045 692.478L-73.9138 688.841L-72.799 685.187L-71.6347 681.572L-70.4906 678.045L-69.4305 674.646L-68.5107 671.406L-67.7805 668.35L-67.2815 665.494L-67.0489 662.848L-67.1108 660.418L-67.4898 658.203L-68.2025 656.2L-69.2602 654.4L-70.6686 652.793L-72.4282 651.365L-74.5332 650.099L-76.9713 648.975L-79.7231 647.971L-82.7609 647.062L-86.0478 646.22L-89.5371 645.414L-93.1716 644.611L-96.8833 643.778L-100.594 642.877L-104.216 641.874L-107.657 640.733L-110.819 639.423L-113.608 637.919L-115.934 636.199L-117.723 634.253L-118.917 632.079L-119.481 629.684L-119.407 627.087L-118.713 624.314L-117.445 621.398L-115.673 618.377L-113.485 615.293L-110.985 612.185L-108.285 609.093L-105.503 606.049L-102.755 603.084L-100.154 600.222L-97.8106 597.48L-95.8296 594.872L-94.3124 592.406L-93.3588 590.084L-93.0709 587.908L-93.5461 585.871L-94.7643 583.947L-96.6284 582.098L-99.043 580.291L-101.912 578.498L-105.136 576.693L-108.61 574.853L-112.223 572.961L-115.857 571.002L-119.393 568.967L-122.708 566.85L-125.686 564.651L-128.22 562.375L-130.217 560.032L-131.606 557.637L-132.34 555.205L-132.403 552.757L-131.806 550.311L-130.585 547.887L-128.803 545.501L-126.54 543.167L-123.89 540.895L-120.952 538.689L-117.828 536.552L-114.616 534.482L-111.408 532.472L-108.286 530.514L-105.324 528.599L-102.582 526.713L-100.112 524.843L-97.9553 522.975L-96.1429 521.094L-94.6984 519.187L-93.6377 517.238L-92.9697 515.234L-92.6969 513.162L-92.8155 511.009L-93.3156 508.767L-94.1808 506.424L-95.3879 503.976L-96.906 501.417L-98.6961 498.748L-100.711 495.97L-102.892 493.092L-105.174 490.126L-107.479 487.09L-109.725 484.008L-111.82 480.911L-113.669 477.832L-115.179 474.81L-116.262 471.886L-116.839 469.103L-116.849 466.498L-116.25 464.107L-115.026 461.957L-113.187 460.064L-110.768 458.435L-107.832 457.063L-104.458 455.932L-100.743 455.013L-96.7954 454.268L-92.7251 453.655L-88.6435 453.123L-84.6581 452.62L-80.8704 452.089L-77.3745 451.476L-74.2579 450.72L-71.6024 449.764L-69.4865 448.545L-67.9882 446.995L-67.1698 445.054L-66.975 442.728L-67.3054 440.05L-68.0675 437.059L-69.1692 433.793L-70.5174 430.299L-72.0172 426.628L-73.5712 422.839L-75.0804 418.998L-76.4463 415.175L-77.5736 411.445L-78.3743 407.883L-78.7718 404.561L-78.705 401.544L-78.1321 398.887L-77.0333 396.629L-75.4114 394.793L-73.2913 393.383L-70.7176 392.386L-67.7509 391.772L-64.4631 391.498L-60.9327 391.51L-57.24 391.746L-53.463 392.142L-49.6745 392.634L-45.9396 393.158L-42.3147 393.655L-38.8465 394.074L-35.5727 394.364L-32.5223 394.484L-29.7161 394.399L-27.1678 394.077L-24.885 393.494L-22.8696 392.628L-21.1187 391.466L-19.6252 389.996L-18.3776 388.212L-17.3609 386.114L-16.5561 383.707L-15.9403 381.001L-15.4866 378.014L-15.1638 374.773L-14.9363 371.313L-14.7645 367.677L-14.6046 363.92L-14.4093 360.107L-14.1291 356.313L-13.7133 352.619L-13.1124 349.113L-12.2805 345.886L-11.1774 343.025L-9.77206 340.611L-8.04439 338.71L-5.98753 337.371L-3.60865 336.622L-0.928913 336.464L2.0178 336.873L5.18697 337.803L8.5264 339.183L11.9794 340.927L15.4882 342.936L18.9962 345.104L22.4511 347.321L25.8057 349.477L29.0189 351.467L32.0563 353.185L34.889 354.533L37.4937 355.413L39.8509 355.725L41.944 355.368L43.7714 354.27L45.3792 352.493L46.8195 350.126L48.1397 347.258L49.3841 343.978L50.5939 340.383L51.8083 336.576L53.0635 332.663L54.3927 328.762L55.8248 324.988L57.3841 321.461L59.0884 318.293L60.9489 315.586L62.9688 313.426L65.144 311.876L67.463 310.976L69.9077 310.734L72.4554 311.134L75.0801 312.132L77.7543 313.663L80.4512 315.644L83.1461 317.981L85.8172 320.576L88.4471 323.329L91.0223 326.146L93.5343 328.937L95.9783 331.623L98.3537 334.135L100.663 336.415L102.911 338.412L105.107 340.087L107.258 341.411L109.377 342.36L111.474 342.919L113.561 343.079L115.652 342.839L117.758 342.2L119.891 341.176L122.063 339.781L124.284 338.042L126.563 335.99L128.906 333.668L131.318 331.127L133.799 328.427L136.349 325.642L138.96 322.853L141.623 320.15L144.321 317.629L147.036 315.39L149.744 313.531L152.42 312.143L155.035 311.304L157.562 311.076L159.975 311.495L162.252 312.573L164.377 314.291L166.341 316.606L168.141 319.447L169.783 322.725L171.282 326.334L172.657 330.16L173.935 334.085L175.147 337.992L176.327 341.767L177.514 345.304L178.748 348.503L180.072 351.269L181.531 353.512L183.174 355.146L185.056 356.081L187.213 356.283L189.635 355.843L192.304 354.862L195.2 353.438L198.297 351.668L201.563 349.654L204.963 347.5L208.452 345.312L211.982 343.199L215.498 341.272L218.941 339.634L222.255 338.382L225.381 337.597L228.269 337.343L230.876 337.664L233.171 338.575L235.137 340.068L236.77 342.112L238.08 344.651L239.091 347.616L239.837 350.925L240.361 354.488L240.711 358.217L240.936 362.025L241.089 365.832L241.218 369.566L241.372 373.166L241.592 376.579L241.919 379.764L242.386 382.688L243.025 385.329L243.861 387.669L244.916 389.699L246.208 391.417L247.752 392.824L249.558 393.927L251.632 394.739L253.975 395.275L256.585 395.557L259.451 395.612L262.559 395.471L265.885 395.172L269.399 394.757L273.059 394.277L276.816 393.784L280.612 393.339L284.378 393.005L288.04 392.846L291.518 392.925L294.733 393.302L297.605 394.027L300.065 395.141L302.057 396.669L303.538 398.62L304.491 400.985L304.917 403.737L304.843 406.833L304.315 410.215L303.4 413.817L302.177 417.567L300.738 421.39L299.179 425.213L297.6 428.967L296.099 432.588L294.775 436.022L293.723 439.217L293.034 442.131L292.802 444.725L293.121 446.964L294.089 448.815L295.733 450.291L297.977 451.458L300.745 452.382L303.955 453.123L307.525 453.739L311.365 454.287L315.379 454.824L319.464 455.403L323.51 456.075L327.405 456.888L331.039 457.884L334.306 459.097L337.113 460.551L339.383 462.262L341.06 464.231L342.116 466.45L342.546 468.899L342.374 471.549L341.646 474.364L340.429 477.306L338.804 480.333L336.863 483.405L334.699 486.485L332.407 489.54L330.076 492.543L327.789 495.471L325.62 498.31L323.634 501.046L321.885 503.676L320.419 506.196L319.274 508.609L318.477 510.921L318.051 513.137L318.009 515.269L318.362 517.326L319.11 519.322L320.249 521.268L321.77 523.18L323.653 525.071L325.875 526.955L328.4 528.848L331.185 530.761L334.177 532.709L337.311 534.703L340.512 536.752L343.695 538.863L346.767 541.04L349.627 543.285L352.175 545.593L354.311 547.957L355.945 550.366L357.001 552.805L357.422 555.257L357.177 557.701L356.263 560.119L354.703 562.491L352.551 564.802L349.883 567.039L346.796 569.195L343.4 571.265L339.814 573.254L336.159 575.167L332.555 577.017L329.117 578.819L325.956 580.595L323.174 582.367L320.87 584.163L319.139 586.014L318.076 587.954L317.775 590.021L318.216 592.236L319.297 594.601L320.916 597.115L322.973 599.772L325.367 602.563L327.991 605.472L330.735 608.48L333.484 611.56L336.121 614.681L338.532 617.805L340.604 620.894L342.238 623.906L343.35 626.799L343.876 629.537L343.777 632.086L343.041 634.423L341.682 636.532L339.743 638.408L337.284 640.055L334.385 641.488L331.137 642.728L327.635 643.806L323.975 644.753L320.25 645.605L316.544 646.399L312.933 647.171L309.481 647.956L306.244 648.786L303.265 649.693L300.579 650.702L298.211 651.84L296.179 653.128L294.493 654.585L293.157 656.227L292.804 656.791Z" fill="url(#paint1_linear_21_8)"/>
<circle cx="138.867" cy="448.761" r="10" fill="#1E1E1E"/>
<circle cx="176.176" cy="429.299" r="10" fill="#1E1E1E"/>
<path fill-rule="evenodd" clip-rule="evenodd" d="M499.058 623.316L498.839 623.823L498.673 624.358L498.559 624.924L498.497 625.522L498.485 626.154L498.522 626.821L498.607 627.525L498.738 628.267L498.915 629.048L499.135 629.87L499.396 630.734L499.697 631.64L500.036 632.59L500.409 633.584L500.816 634.622L501.251 635.704L501.713 636.829L502.197 637.998L502.7 639.208L503.217 640.458L503.745 641.746L504.276 643.07L504.808 644.425L505.332 645.808L505.844 647.215L506.337 648.639L506.805 650.076L507.239 651.518L507.634 652.959L507.982 654.39L508.276 655.803L508.51 657.189L508.676 658.54L508.769 659.845L508.782 661.096L508.71 662.282L508.55 663.395L508.298 664.426L507.95 665.367L507.507 666.209L506.966 666.947L506.329 667.575L505.599 668.089L504.777 668.485L503.868 668.761L502.877 668.919L501.81 668.957L500.674 668.88L499.476 668.69L498.224 668.394L496.927 667.997L495.593 667.506L494.231 666.929L492.849 666.276L491.455 665.555L490.058 664.777L488.665 663.951L487.282 663.087L485.917 662.195L484.575 661.285L483.262 660.367L481.981 659.449L480.737 658.54L479.533 657.65L478.371 656.785L477.253 655.953L476.182 655.162L475.158 654.418L474.182 653.727L473.254 653.095L472.373 652.529L471.541 652.034L470.755 651.615L470.015 651.278L469.321 651.029L468.671 650.875L468.064 650.822L467.499 650.876L466.974 651.045L466.487 651.332L466.032 651.731L465.603 652.236L465.195 652.844L464.805 653.55L464.427 654.349L464.058 655.239L463.694 656.213L463.331 657.27L462.966 658.402L462.594 659.607L462.214 660.878L461.821 662.209L461.412 663.594L460.985 665.026L460.538 666.497L460.067 667.998L459.57 669.52L459.045 671.053L458.492 672.586L457.907 674.108L457.292 675.608L456.644 677.073L455.965 678.49L455.255 679.848L454.514 681.133L453.744 682.334L452.948 683.438L452.127 684.436L451.284 685.316L450.423 686.071L449.548 686.691L448.662 687.172L447.769 687.508L446.874 687.697L445.981 687.737L445.094 687.629L444.218 687.375L443.356 686.979L442.512 686.446L441.689 685.783L440.89 684.998L440.119 684.101L439.376 683.101L438.664 682.008L437.983 680.834L437.335 679.591L436.719 678.288L436.135 676.938L435.584 675.551L435.063 674.139L434.572 672.71L434.108 671.275L433.671 669.842L433.258 668.42L432.868 667.016L432.497 665.636L432.144 664.287L431.806 662.973L431.48 661.7L431.165 660.471L430.858 659.29L430.556 658.159L430.258 657.081L429.96 656.058L429.66 655.09L429.357 654.18L429.048 653.328L428.731 652.534L428.404 651.798L428.065 651.121L427.711 650.503L427.342 649.943L426.955 649.44L426.547 648.995L426.118 648.606L425.666 648.273L425.189 647.995L424.684 647.771L424.151 647.601L423.588 647.483L422.992 647.417L422.363 647.401L421.699 647.434L420.998 647.516L420.259 647.644L419.481 647.816L418.663 648.033L417.802 648.291L416.899 648.589L415.953 648.925L414.963 649.296L413.928 649.699L412.85 650.133L411.728 650.592L410.563 651.075L409.356 651.577L408.108 652.093L406.823 652.62L405.502 653.151L404.15 653.683L402.769 654.208L401.364 654.721L399.94 655.216L398.504 655.686L397.062 656.123L395.621 656.521L394.189 656.874L392.775 657.172L391.386 657.411L390.032 657.583L388.722 657.681L387.467 657.701L386.275 657.637L385.156 657.484L384.118 657.239L383.17 656.899L382.32 656.463L381.573 655.93L380.936 655.301L380.413 654.577L380.008 653.763L379.722 652.86L379.555 651.876L379.507 650.815L379.575 649.684L379.756 648.491L380.044 647.243L380.434 645.949L380.918 644.618L381.488 643.258L382.135 641.877L382.851 640.484L383.625 639.087L384.448 637.693L385.309 636.309L386.199 634.942L387.108 633.599L388.026 632.283L388.944 630.999L389.853 629.752L390.746 628.544L391.613 627.379L392.447 626.258L393.242 625.183L393.99 624.155L394.686 623.175L395.322 622.243L395.894 621.359L396.395 620.522L396.82 619.733L397.164 618.99L397.42 618.292L397.582 617.638L397.644 617.028L397.598 616.46L397.438 615.932L397.16 615.442L396.77 614.984L396.273 614.553L395.674 614.144L394.976 613.753L394.183 613.374L393.301 613.005L392.333 612.64L391.283 612.277L390.156 611.912L388.957 611.541L387.691 611.162L386.365 610.77L384.983 610.363L383.555 609.937L382.087 609.491L380.588 609.022L379.068 608.528L377.535 608.005L376.001 607.454L374.478 606.872L372.976 606.259L371.508 605.614L370.086 604.938L368.724 604.23L367.432 603.491L366.224 602.724L365.112 601.929L364.105 601.11L363.215 600.269L362.45 599.41L361.819 598.535L361.327 597.65L360.979 596.758L360.778 595.863L360.726 594.969L360.823 594.082L361.065 593.204L361.45 592.341L361.973 591.495L362.625 590.671L363.4 589.87L364.289 589.096L365.282 588.351L366.367 587.636L367.535 586.953L368.774 586.302L370.072 585.684L371.419 585.098L372.803 584.544L374.214 584.02L375.641 583.527L377.076 583.061L378.509 582.622L379.933 582.208L381.339 581.815L382.721 581.443L384.073 581.088L385.389 580.749L386.666 580.423L387.899 580.107L389.084 579.799L390.219 579.497L391.301 579.199L392.329 578.901L393.3 578.602L394.215 578.299L395.072 577.99L395.871 577.674L396.611 577.348L397.293 577.01L397.916 576.657L398.481 576.289L398.988 575.903L399.438 575.498L399.831 575.071L400.168 574.62L400.451 574.145L400.678 573.643L400.853 573.112L400.975 572.551L401.045 571.958L401.065 571.332L401.036 570.671L400.958 569.973L400.834 569.237L400.665 568.462L400.452 567.646L400.197 566.789L399.902 565.89L399.569 564.947L399.201 563.96L398.8 562.929L398.369 561.855L397.911 560.736L397.43 559.574L396.93 558.37L396.414 557.126L395.888 555.844L395.357 554.526L394.825 553.176L394.299 551.797L393.785 550.394L393.288 548.972L392.816 547.536L392.376 546.095L391.974 544.653L391.618 543.22L391.315 541.804L391.071 540.412L390.894 539.055L390.789 537.742L390.763 536.482L390.821 535.285L390.966 534.159L391.204 533.115L391.536 532.159L391.965 531.301L392.49 530.546L393.111 529.9L393.827 529.368L394.635 528.953L395.53 528.658L396.509 528.481L397.564 528.424L398.689 528.483L399.878 528.655L401.122 528.935L402.412 529.316L403.741 529.793L405.099 530.356L406.478 530.998L407.871 531.709L409.268 532.478L410.662 533.298L412.047 534.156L413.415 535.044L414.761 535.952L416.079 536.87L417.366 537.788L418.616 538.699L419.827 539.593L420.996 540.462L422.12 541.299L423.199 542.098L424.23 542.85L425.214 543.55L426.15 544.191L427.038 544.768L427.878 545.275L428.672 545.707L429.418 546.057L430.12 546.32L430.777 546.49L431.391 546.56L431.962 546.523L432.493 546.372L432.986 546.104L433.446 545.723L433.879 545.234L434.289 544.642L434.682 543.952L435.062 543.167L435.432 542.292L435.796 541.33L436.159 540.287L436.524 539.166L436.895 537.972L437.273 536.712L437.664 535.39L438.07 534.012L438.494 532.588L438.938 531.122L439.405 529.626L439.898 528.106L440.418 526.575L440.967 525.041L441.546 523.516L442.156 522.012L442.799 520.541L443.473 519.115L444.178 517.747L444.915 516.449L445.68 515.234L446.472 514.114L447.29 513.098L448.129 512.199L448.987 511.424L449.86 510.781L450.745 510.278L451.637 509.918L452.532 509.706L453.425 509.642L454.313 509.727L455.192 509.958L456.056 510.332L456.904 510.843L457.73 511.486L458.533 512.252L459.309 513.132L460.056 514.116L460.773 515.195L461.459 516.356L462.113 517.59L462.734 518.884L463.322 520.227L463.879 521.609L464.405 523.018L464.901 524.445L465.368 525.879L465.809 527.313L466.226 528.737L466.62 530.145L466.994 531.529L467.35 532.884L467.69 534.203L468.017 535.483L468.334 536.719L468.642 537.908L468.944 539.047L469.243 540.134L469.541 541.166L469.84 542.142L470.142 543.062L470.45 543.923L470.766 544.727L471.091 545.471L471.429 546.158L471.78 546.785L472.146 547.355L472.531 547.867L472.935 548.321L473.36 548.719L473.809 549.061L474.282 549.347L474.782 549.579L475.31 549.758L475.869 549.884L476.459 549.959L477.083 549.982L477.741 549.957L478.436 549.883L479.169 549.763L479.94 549.597L480.753 549.387L481.606 549.136L482.503 548.844L483.442 548.514L484.425 548.148L485.452 547.75L486.524 547.321L487.639 546.865L488.797 546.386L489.998 545.887L491.239 545.373L492.518 544.848L493.833 544.316L495.181 543.785L496.558 543.258L497.96 542.742L499.38 542.244L500.815 541.77L502.256 541.327L503.698 540.922L505.132 540.562L506.55 540.254L507.944 540.006L509.304 539.823L510.621 539.712L511.885 539.679L513.088 539.73L514.219 539.869L515.271 540.099L516.234 540.424L517.1 540.844L517.864 541.362L518.518 541.976L519.059 542.684L519.484 543.485L519.789 544.373L519.975 545.345L520.041 546.394L519.991 547.515L519.828 548.698L519.557 549.938L519.183 551.225L518.714 552.551L518.157 553.907L517.521 555.285L516.816 556.677L516.05 558.074L515.235 559.469L514.379 560.854L513.493 562.224L512.586 563.572L511.669 564.893L510.75 566.182L509.839 567.435L508.943 568.649L508.072 569.821L507.231 570.949L506.43 572.032L505.674 573.067L504.97 574.055L504.323 574.995L503.741 575.886L503.228 576.73L502.79 577.527L502.433 578.278L502.163 578.983L501.986 579.644L501.908 580.261L501.935 580.836L502.077 581.369L502.336 581.865L502.708 582.328L503.189 582.762L503.773 583.175L504.455 583.569L505.233 583.949L506.101 584.32L507.056 584.685L508.093 585.048L509.208 585.412L510.396 585.782L511.651 586.16L512.969 586.55L514.342 586.954L515.763 587.376L517.225 587.819L518.72 588.284L520.238 588.775L521.769 589.292L523.303 589.839L524.829 590.416L526.335 591.024L527.809 591.664L529.239 592.335L530.612 593.038L531.916 593.772L533.138 594.535L534.266 595.325L535.291 596.141L536.2 596.978L536.985 597.835L537.638 598.708L538.153 599.591L538.524 600.483L538.748 601.378L538.824 602.272L538.751 603.16L538.531 604.04L538.169 604.905L537.668 605.754L537.035 606.582L536.279 607.387L535.408 608.165L534.431 608.915L533.36 609.635L532.204 610.323L530.976 610.979L529.687 611.603L528.347 612.194L526.968 612.753L525.561 613.281L524.135 613.779L522.701 614.249L521.267 614.692L519.841 615.111L518.432 615.506L517.046 615.882L515.689 616.239L514.366 616.58L513.083 616.909L511.843 617.226L510.65 617.535L509.507 617.838L508.416 618.137L507.38 618.435L506.399 618.733L505.475 619.035L504.609 619.343L503.801 619.658L503.051 619.982L502.36 620.318L501.728 620.668L501.154 621.034L500.638 621.417L500.179 621.819L499.776 622.243L499.43 622.689L499.139 623.16L499.058 623.316Z" fill="url(#paint2_linear_21_8)"/>
<path d="M156.551 458.833C171.829 460.028 174.498 459.851 178.801 447.174" stroke="#1E1E1E" stroke-width="4" stroke-linecap="round"/>
</g>
<path fill-rule="evenodd" clip-rule="evenodd" d="M506.077 184.985V184.985L505.827 185.559L505.728 186.234L505.768 187.01L505.938 187.885L506.229 188.861L506.633 189.937L507.142 191.113L507.75 192.391L508.449 193.769L509.232 195.248L510.092 196.826L511.02 198.502L512.008 200.274L513.048 202.139L514.129 204.092L515.242 206.129L516.376 208.243L517.519 210.426L518.658 212.669L519.78 214.961L520.871 217.291L521.918 219.643L522.906 222.004L523.82 224.358L524.647 226.687L525.371 228.972L525.981 231.196L526.463 233.34L526.806 235.383L527.002 237.31L527.043 239.1L526.921 240.739L526.635 242.212L526.182 243.506L525.563 244.61L524.782 245.516L523.842 246.22L522.753 246.717L521.522 247.009L520.161 247.097L518.682 246.988L517.098 246.689L515.422 246.21L513.67 245.563L511.856 244.761L509.995 243.818L508.099 242.75L506.184 241.573L504.261 240.304L502.343 238.958L500.439 237.551L498.56 236.098L496.714 234.616L494.908 233.116L493.148 231.613L491.44 230.119L489.787 228.643L488.192 227.196L486.657 225.788L485.184 224.425L483.773 223.114L482.424 221.862L481.137 220.674L479.91 219.554L478.742 218.505L477.631 217.532L476.575 216.636L475.572 215.82L474.618 215.085L473.713 214.433L472.852 213.866L472.033 213.384L471.254 212.987L470.511 212.678L469.802 212.456L469.123 212.322L468.473 212.277L467.847 212.321L467.244 212.456L466.66 212.681L466.092 212.997L465.539 213.405L464.996 213.906L464.461 214.501L463.931 215.189L463.404 215.972L462.876 216.85L462.345 217.823L461.807 218.892L461.26 220.056L460.7 221.314L460.124 222.667L459.53 224.112L458.915 225.647L458.275 227.27L457.608 228.978L456.91 230.765L456.18 232.628L455.414 234.559L454.61 236.551L453.767 238.595L452.883 240.681L451.956 242.798L450.986 244.933L449.972 247.072L448.915 249.198L447.817 251.296L446.678 253.348L445.503 255.334L444.293 257.234L443.053 259.029L441.789 260.699L440.506 262.223L439.211 263.582L437.911 264.758L436.614 265.733L435.328 266.492L434.062 267.023L432.824 267.316L431.624 267.362L430.468 267.157L429.365 266.701L428.323 265.996L427.346 265.047L426.442 263.864L425.613 262.458L424.864 260.844L424.196 259.039L423.609 257.062L423.104 254.934L422.679 252.675L422.331 250.31L422.056 247.859L421.85 245.347L421.707 242.793L421.622 240.22L421.587 237.647L421.597 235.093L421.644 232.574L421.72 230.107L421.82 227.705L421.935 225.38L422.058 223.143L422.183 221.003L422.302 218.969L422.41 217.047L422.499 215.242L422.563 213.561L422.595 212.005L422.59 210.58L422.541 209.288L422.44 208.132L422.283 207.116L422.06 206.243L421.765 205.515L421.389 204.939L420.922 204.517L420.356 204.256L419.689 204.145L418.921 204.174L418.054 204.334L417.086 204.615L416.018 205.011L414.85 205.512L413.58 206.112L412.21 206.804L410.739 207.581L409.169 208.435L407.501 209.357L405.736 210.341L403.879 211.377L401.932 212.456L399.901 213.567L397.793 214.699L395.616 215.841L393.377 216.981L391.088 218.105L388.762 219.199L386.41 220.25L384.049 221.243L381.694 222.164L379.363 222.998L377.073 223.731L374.844 224.35L372.693 224.842L370.641 225.197L368.705 225.405L366.903 225.458L365.251 225.35L363.764 225.077L362.456 224.637L361.336 224.031L360.414 223.263L359.694 222.336L359.18 221.258L358.872 220.038L358.768 218.687L358.861 217.217L359.145 215.64L359.61 213.972L360.245 212.225L361.035 210.416L361.967 208.557L363.026 206.664L364.194 204.75L365.457 202.828L366.798 200.908L368.201 199.003L369.65 197.122L371.13 195.273L372.629 193.463L374.132 191.7L375.628 189.987L377.106 188.33L378.555 186.73L379.967 185.191L381.334 183.713L382.649 182.297L383.905 180.943L385.099 179.651L386.224 178.419L387.279 177.247L388.258 176.131L389.16 175.071L389.983 174.064L390.724 173.107L391.383 172.197L391.957 171.333L392.446 170.511L392.849 169.729L393.166 168.983L393.395 168.271L393.535 167.59L393.587 166.938L393.55 166.31L393.423 165.705L393.205 165.12L392.896 164.551L392.495 163.996L392.002 163.453L391.415 162.917L390.734 162.388L389.958 161.86L389.088 161.332L388.122 160.801L387.061 160.264L385.905 159.718L384.654 159.159L383.309 158.585L381.871 157.992L380.343 157.379L378.727 156.741L377.026 156.076L375.244 155.381L373.387 154.653L371.462 153.89L369.474 153.089L367.434 152.25L365.351 151.368L363.235 150.445L361.101 149.478L358.962 148.468L356.834 147.415L354.733 146.319L352.677 145.184L350.686 144.011L348.777 142.803L346.973 141.566L345.293 140.303L343.756 139.022L342.383 137.727L341.192 136.427L340.201 135.13L339.423 133.843L338.874 132.575L338.562 131.335L338.496 130.131L338.681 128.972L339.117 127.864L339.802 126.817L340.732 125.835L341.897 124.925L343.286 124.09L344.884 123.334L346.674 122.659L348.638 122.067L350.755 121.555L353.004 121.124L355.362 120.77L357.806 120.489L360.315 120.278L362.866 120.13L365.438 120.04L368.012 120.002L370.568 120.009L373.09 120.053L375.562 120.127L377.97 120.225L380.302 120.339L382.546 120.462L384.694 120.587L386.737 120.708L388.668 120.816L390.482 120.907L392.174 120.973L393.74 121.008L395.175 121.006L396.478 120.961L397.644 120.865L398.672 120.712L399.557 120.495L400.296 120.206L400.885 119.837L401.319 119.377L401.593 118.819L401.716 118.16L401.697 117.401L401.547 116.541L401.275 115.582L400.889 114.522L400.395 113.361L399.803 112.1L399.118 110.738L398.347 109.275L397.5 107.712L396.582 106.052L395.603 104.295L394.57 102.444L393.495 100.505L392.386 98.4808L391.255 96.3787L390.113 94.2061L388.973 91.972L387.847 89.687L386.75 87.3628L385.695 85.0129L384.696 82.6519L383.77 80.296L382.928 77.9622L382.187 75.6685L381.558 73.4335L381.055 71.276L380.688 69.215L380.468 67.269L380.403 65.4556L380.498 63.7913L380.758 62.2911L381.184 60.9681L381.777 59.8332L382.533 58.8949L383.447 58.1591L384.514 57.6288L385.722 57.3044L387.063 57.1838L388.525 57.2618L390.093 57.5311L391.755 57.9822L393.496 58.6035L395.301 59.3821L397.156 60.3035L399.047 61.3524L400.96 62.5129L402.882 63.7689L404.802 65.104L406.709 66.5022L408.592 67.9482L410.444 69.427L412.257 70.9246L414.024 72.4279L415.741 73.9248L417.404 75.4042L419.008 76.856L420.552 78.2713L422.035 79.6421L423.456 80.9613L424.815 82.2229L426.112 83.4216L427.348 84.5529L428.525 85.6129L429.645 86.5985L430.71 87.5069L431.722 88.3359L432.683 89.0837L433.596 89.7487L434.463 90.3298L435.289 90.8258L436.074 91.2358L436.823 91.5592L437.537 91.7951L438.22 91.9431L438.875 92.0023L439.505 91.9722L440.111 91.8522L440.698 91.6417L441.268 91.3399L441.824 90.9463L442.368 90.46L442.904 89.8805L443.434 89.2071L443.962 88.4393L444.489 87.5765L445.02 86.6184L445.556 85.5649L446.102 84.4162L446.66 83.1726L447.232 81.8351L447.823 80.4048L448.435 78.8838L449.071 77.2744L449.734 75.5801L450.426 73.805L451.151 71.954L451.911 70.0336L452.709 68.0508L453.545 66.0143L454.423 63.934L455.343 61.821L456.306 59.688L457.313 57.549L458.363 55.4193L459.455 53.3155L460.587 51.2555L461.757 49.258L462.962 47.3425L464.197 45.5291L465.458 43.838L466.739 42.2894L468.032 40.9028L469.332 39.6969L470.63 38.6887L471.918 37.8939L473.188 37.3258L474.43 36.9949L475.637 36.9094L476.801 37.0738L477.912 37.4899L478.965 38.1557L479.952 39.0661L480.869 40.2127L481.71 41.5841L482.472 43.166L483.153 44.9419L483.752 46.8928L484.27 48.9986L484.708 51.2376L485.068 53.5876L485.355 56.026L485.571 58.5304L485.724 61.0788L485.818 63.6501L485.86 66.2244L485.857 68.7828L485.816 71.3081L485.743 73.7845L485.647 76.198L485.534 78.536L485.411 80.7875L485.286 82.9431L485.166 84.9946L485.056 86.935L484.963 88.7586L484.895 90.4604L484.857 92.0361L484.856 93.4823L484.898 94.7957L484.99 95.9731L485.138 97.0117L485.349 97.9082L485.632 98.6591L485.995 99.2602L486.447 99.7065L486.997 99.9935L487.648 100.128L488.399 100.12L489.251 99.9804L490.202 99.7177L491.254 99.34L492.407 98.855L493.66 98.27L495.015 97.592L496.469 96.8284L498.024 95.9865L499.677 95.0742L501.426 94.0995L503.269 93.0713L505.202 91.9989L507.219 90.8924L509.316 89.7626L511.483 88.6211L513.712 87.4803L515.994 86.353L518.315 85.2529L520.664 84.1941L523.024 83.1909L525.381 82.2578L527.717 81.4093L530.015 80.6592L532.255 80.0212L534.42 79.5076L536.489 79.1299L538.445 78.8979L540.27 78.8199L541.946 78.9021L543.46 79.1488L544.798 79.562L545.948 80.1414L546.902 80.8846L547.654 81.7868L548.201 82.8411L548.542 84.039L548.679 85.3699L548.616 86.8221L548.362 88.3825L547.925 90.0373L547.317 91.7723L546.55 93.5728L545.64 95.4244L544.6 97.3128L543.448 99.2245L542.199 101.147L540.87 103.067L539.476 104.975L538.033 106.861L536.557 108.716L535.06 110.532L533.557 112.303L532.059 114.024L530.578 115.69L529.123 117.3L527.705 118.849L526.33 120.336L525.007 121.762L523.74 123.126L522.536 124.428L521.4 125.669L520.334 126.851L519.342 127.975L518.428 129.044L517.592 130.06L516.838 131.025L516.166 131.941L515.579 132.813L515.076 133.641L514.659 134.43L514.329 135.181L514.086 135.898L513.931 136.584L513.864 137.241L513.887 137.872L514 138.48L514.204 139.069L514.498 139.64L514.884 140.197L515.363 140.742L515.935 141.278L516.601 141.809L517.362 142.336L518.217 142.864L519.167 143.394L520.213 143.93L521.354 144.475L522.59 145.032L523.921 145.603L525.343 146.192L526.857 146.802L528.46 147.436L530.148 148.097L531.916 148.787L533.762 149.509L535.677 150.266L537.655 151.061L539.688 151.894L541.765 152.769L543.876 153.686L546.008 154.645L548.147 155.649L550.278 156.695L552.384 157.784L554.449 158.913L556.452 160.08L558.375 161.282L560.197 162.515L561.899 163.774L563.459 165.053L564.859 166.346L566.08 167.646L567.105 168.944L567.917 170.233L568.504 171.505L568.854 172.75L568.959 173.96L568.815 175.127L568.419 176.243L567.773 177.301L566.882 178.294L565.754 179.216L564.4 180.063L562.834 180.831L561.073 181.519L559.135 182.125L557.041 182.649L554.812 183.093L552.47 183.459L550.037 183.751L547.537 183.973L544.992 184.131L542.421 184.229L539.847 184.275L537.286 184.275L534.758 184.237L532.277 184.167L529.858 184.072L527.513 183.96L525.255 183.838L523.091 183.713L521.031 183.591L519.081 183.48L517.248 183.386L515.537 183.316L513.951 183.275L512.494 183.271L511.17 183.309L509.982 183.396L508.932 183.54L508.024 183.746L507.261 184.023L506.648 184.379L506.189 184.823L506.077 184.985Z" fill="url(#paint3_linear_21_8)"/>
<defs>
<linearGradient id="paint0_linear_21_8" x1="250" y1="114" x2="250" y2="614" gradientUnits="userSpaceOnUse">
<stop offset="0.0689996" stop-color="#A393FF"/>
<stop offset="0.784" stop-color="#6247FF"/>
</linearGradient>
<linearGradient id="paint1_linear_21_8" x1="235.363" y1="339.852" x2="-11.2195" y2="763.131" gradientUnits="userSpaceOnUse">
<stop stop-color="#4EFFB5"/>
<stop offset="0.0001" stop-color="#79ED9B"/>
<stop offset="0.0002" stop-color="#BAD274"/>
<stop offset="0.565" stop-color="#F9B74D"/>
</linearGradient>
<linearGradient id="paint2_linear_21_8" x1="492.307" y1="500.538" x2="457.996" y2="660.598" gradientUnits="userSpaceOnUse">
<stop stop-color="#FBFCF5"/>
<stop offset="1" stop-color="#F94D9B"/>
</linearGradient>
<linearGradient id="paint3_linear_21_8" x1="694.762" y1="958.075" x2="483.353" y2="1018.96" gradientUnits="userSpaceOnUse">
<stop stop-color="#C6EC55"/>
<stop offset="1" stop-color="#82B3C2"/>
</linearGradient>
</defs>
</svg>
