<svg width="261" height="66" viewBox="0 0 261 66" fill="none" xmlns="http://www.w3.org/2000/svg">
<ellipse cx="33.383" cy="32.7689" rx="32.6548" ry="32.5" fill="#6247FF"/>
<path d="M80.7809 53.7134H77.2254V35.9356H80.7809V32.38H95.0031V35.9356H98.5587V39.4911H91.4476V35.9356H84.3365V53.7134H91.4476V50.1578H98.5587V53.7134H95.0031V57.2689H80.7809V53.7134ZM102.1 57.2689V32.38H109.211V53.7134H123.434V57.2689H102.1ZM134.086 35.9356V32.38H141.198V35.9356H144.753V43.0467H148.309V57.2689H141.198V50.1578H134.086V57.2689H126.975V43.0467H130.531V35.9356H134.086ZM134.086 46.6022H141.198V39.4911H134.086V46.6022ZM169.628 35.9356H173.184V43.0467H169.628V46.6022H166.073V50.1578H169.628V53.7134H173.184V57.2689H166.073V53.7134H162.517V50.1578H158.961V57.2689H151.85V32.38H169.628V35.9356ZM166.073 43.0467V35.9356H158.961V43.0467H166.073ZM180.281 35.9356H176.725V32.38H190.948V35.9356H187.392V53.7134H190.948V57.2689H176.725V53.7134H180.281V35.9356ZM194.507 57.2689V32.38H215.84V35.9356H201.618V43.0467H212.284V46.6022H201.618V53.7134H215.84V57.2689H194.507ZM230.048 32.38V35.9356H233.604V43.0467H237.159V32.38H244.271V57.2689H237.159V53.7134H233.604V50.1578H230.048V43.0467H226.493V57.2689H219.382V32.38H230.048Z" fill="#1E1E1E"/>
<path d="M254.93 57.2689H247.819V53.7134H254.93V57.2689Z" fill="#6247FF"/>
<mask id="mask0_28_63" style="mask-type:alpha" maskUnits="userSpaceOnUse" x="45" y="25" width="18" height="21">
<ellipse cx="54.3145" cy="35.2689" rx="8.54049" ry="10" fill="#FFFDF3"/>
</mask>
<g mask="url(#mask0_28_63)">
<ellipse cx="54.3145" cy="35.2689" rx="8.54049" ry="10" fill="#FFFDF3"/>
<ellipse cx="58.8301" cy="35.4209" rx="5.95346" ry="6.23709" fill="#1E1E1E"/>
</g>
<mask id="mask1_28_63" style="mask-type:alpha" maskUnits="userSpaceOnUse" x="26" y="25" width="19" height="21">
<ellipse cx="35.5075" cy="35.2689" rx="8.54049" ry="10" fill="#FFFDF3"/>
</mask>
<g mask="url(#mask1_28_63)">
<ellipse cx="35.5075" cy="35.2689" rx="8.54049" ry="10" fill="#FFFDF3"/>
<ellipse cx="39.8206" cy="35.2689" rx="5.95346" ry="6.23709" fill="#1E1E1E"/>
</g>
</svg>
